<svg xmlns="http://www.w3.org/2000/svg" viewBox="0 0 402 152"><defs><style>.cls-1{fill:#fff;}</style></defs><title>Asset 1</title><g id="Layer_2" data-name="Layer 2"><g id="Layer_1-2" data-name="Layer 1"><path class="cls-1" d="M7.76,25.15s28.79-6.77,29.44,11v84.48H95.86V102.53H65.66V34.82s3.23-31.6-34.61-31.6c0,0-18.44,0-31,4.2Z"/><path class="cls-1" d="M103.5,37.4V95.14a25.58,25.58,0,0,0,9.74,20c14.37,11.29,43.87,6.37,55-7.45v12.9h24.25V37.4H164.63V82.59c0,8.72-6.43,16.41-15.14,17.27-.49,0-1,.08-1.52.09,0,0-16,2.65-16-16.41V37.4Z"/><polygon class="cls-1" points="208.32 37.4 208.32 56.42 250.69 56.42 202.18 105.43 202.18 120.59 292.42 120.59 292.42 100.28 242.28 100.28 290.8 50.94 290.8 37.4 208.32 37.4"/><path class="cls-1" d="M297.64,37.4l40.75,78.35s-1.62,19.67-27.81,14.51l-6.26,20.42s39.89,8.81,53.26-19.13L402,37.4H375.26L351.54,94.7,323.92,37.4Z"/><ellipse class="cls-1" cx="299.17" cy="14.03" rx="14.07" ry="14.03"/></g></g></svg>