<svg id="Layer_1" data-name="Layer 1" xmlns="http://www.w3.org/2000/svg" viewBox="0 0 96 73.92"><defs><style>.cls-1{fill:#054993;}</style></defs><title>Artboard 1</title><path class="cls-1" d="M86.66,0H9.34A9.36,9.36,0,0,0,0,9.39V64.53a9.36,9.36,0,0,0,9.34,9.39H86.66A9.36,9.36,0,0,0,96,64.53V9.39A9.36,9.36,0,0,0,86.66,0ZM84.59,53.29a3.29,3.29,0,0,1,.15,4.64,3.24,3.24,0,0,1-2.38,1,3.27,3.27,0,0,1-2.24-.88L61,40.11l-8.33,6.74a8.17,8.17,0,0,1-10.34-.07l-7.9-6.58-19,17.89a3.27,3.27,0,0,1-4.62-.16A3.3,3.3,0,0,1,11,53.29L29.36,36,11.1,20.76a3.28,3.28,0,0,1,4.17-5.06l31.24,26a1.64,1.64,0,0,0,2.07,0l32.18-26a3.26,3.26,0,0,1,4.6.49,3.3,3.3,0,0,1-.5,4.62L66.15,35.94Z"/></svg>